<svg height="512pt" viewBox="0 -5 512 512" width="512pt" xmlns="http://www.w3.org/2000/svg"><path d="m445.34375 159.441406h-52.613281c-33.808594 0-58.363281-32.144531-49.46875-64.761718l10.207031-37.425782c8.0625-29.566406 34.921875-50.078125 65.566406-50.078125 30.648438 0 57.5 20.511719 65.566406 50.078125l10.207032 37.425782c8.894531 32.617187-15.660156 64.761718-49.464844 64.761718zm0 0" fill="#b08989"/><path d="m447.835938 469.058594h-57.601563c-5.449219 0-9.867187-4.417969-9.867187-9.867188v-220.410156h77.335937v220.410156c0 5.449219-4.417969 9.867188-9.867187 9.867188zm0 0" fill="#ffdfc7"/><path d="m419.035156 471.789062c-4.265625 0-7.726562-3.460937-7.726562-7.726562v-94.378906c0-4.265625 3.460937-7.726563 7.726562-7.726563 4.269532 0 7.726563 3.460938 7.726563 7.726563v94.378906c0 4.265625-3.457031 7.726562-7.726563 7.726562zm0 0" fill="#fecaa8"/><path d="m128.855469 238.785156v219.386719c0 6.015625-4.875 10.886719-10.878907 10.886719h-72.351562c-6.003906 0-10.878906-4.871094-10.878906-10.886719v-219.386719zm0 0" fill="#d6bcab"/><path d="m128.855469 238.785156v90.625c-12.175781-5.152344-20.75-17.226562-20.75-31.265625v-23.148437h-52.609375v22.324218c0 14.03125-8.570313 26.105469-20.75 31.253907v-89.789063zm0 0" fill="#bfa394"/><path d="m163.597656 157.199219v105.4375h-163.59374975v-105.4375c0-32.125 26.03515575-58.160157 58.15624975-58.160157h47.277344c32.125 0 58.160156 26.039063 58.160156 58.160157zm0 0" fill="#3ad391"/><path d="m58.585938 141.875v120.757812h-15.453126v-120.757812c0-4.265625 3.460938-7.726562 7.726563-7.726562s7.726563 3.460937 7.726563 7.726562zm0 0" fill="#2fc17e"/><path d="m120.46875 141.875v120.757812h-15.453125v-120.757812c0-4.265625 3.460937-7.726562 7.726563-7.726562 4.265624 0 7.726562 3.460937 7.726562 7.726562zm0 0" fill="#2fc17e"/><path d="m142.035156 319.710938c-11.910156 0-21.566406-9.65625-21.566406-21.566407v-140.292969h43.132812v140.292969c0 11.910157-9.65625 21.566407-21.566406 21.566407zm0 0" fill="#fecaa8"/><path d="m21.566406 318.882812c-11.910156 0-21.566406-9.65625-21.566406-21.566406v-140.292968h43.132812v140.292968c0 11.910156-9.65625 21.566406-21.566406 21.566406zm0 0" fill="#fecaa8"/><path d="m81.800781 471.789062c-4.265625 0-7.726562-3.460937-7.726562-7.726562v-169.175781c0-4.269531 3.460937-7.726563 7.726562-7.726563s7.726563 3.457032 7.726563 7.726563v169.175781c0 4.265625-3.460938 7.726562-7.726563 7.726562zm0 0" fill="#bfa394"/><path d="m71.410156 502.992188h-55.957031c-10.5625 0-15.4375-13.128907-7.433594-20.019532 14.484375-12.472656 32.964844-19.332031 52.078125-19.332031h11.316406c5.738282 0 10.386719 4.652344 10.386719 10.390625v18.574219c0 5.738281-4.652343 10.386719-10.390625 10.386719zm0 0" fill="#628fb1"/><path d="m92.1875 502.992188h55.960938c10.5625 0 15.4375-13.128907 7.429687-20.019532-14.480469-12.472656-32.960937-19.332031-52.074219-19.332031h-11.316406c-5.738281 0-10.386719 4.652344-10.386719 10.390625v18.574219c0 5.738281 4.652344 10.386719 10.386719 10.386719zm0 0" fill="#4c78a0"/><path d="m512 356.738281c0 6.015625-4.871094 10.890625-10.890625 10.890625h-164.15625c-6.007813 0-10.878906-4.875-10.878906-10.890625l12.527343-32.179687 33.375-85.773438h94.117188l33.625 86.410156zm0 0" fill="#ff71a7"/><path d="m499.71875 325.195312c-5.6875 4.316407-12.773438 6.871094-20.449219 6.871094-18.707031 0-33.933593-15.214844-33.933593-33.925781v-16.132813h-52.609376v15.308594c0 18.707032-15.214843 33.925782-33.925781 33.925782-7.5625 0-14.554687-2.484376-20.199219-6.6875l33.375-85.773438h94.117188zm0 0" fill="#ff4b87"/><path d="m500.832031 189.335938v73.296874h-163.59375v-73.296874c0-4.308594.464844-8.5 1.363281-12.539063 5.726563-26.09375 28.976563-45.613281 56.792969-45.613281h47.285157c28.113281 0 51.558593 19.933594 56.96875 46.4375.78125 3.78125 1.183593 7.707031 1.183593 11.714844zm0 0" fill="#ff71a7"/><path d="m500.832031 189.335938v73.296874h-163.59375v-73.296874c0-4.308594.464844-8.5 1.363281-12.539063h35.796876c10.121093 0 18.328124 8.207031 18.328124 18.328125v33.996094h52.609376v-33.171875c0-10.121094 8.207031-18.328125 18.328124-18.328125h35.984376c.78125 3.78125 1.183593 7.707031 1.183593 11.714844zm0 0" fill="#ff4b87"/><path d="m449.976562 247.648438c-4.265624 0-7.722656-3.460938-7.722656-7.726563v-63.359375c0-4.269531 3.457032-7.726562 7.722656-7.726562 4.269532 0 7.726563 3.457031 7.726563 7.726562v63.359375c0 4.265625-3.457031 7.726563-7.726563 7.726563zm0 0" fill="#ff4b87"/><path d="m388.09375 247.648438c-4.265625 0-7.726562-3.460938-7.726562-7.726563v-63.359375c0-4.269531 3.460937-7.726562 7.726562-7.726562s7.726562 3.457031 7.726562 7.726562v63.359375c0 4.265625-3.460937 7.726563-7.726562 7.726563zm0 0" fill="#ff4b87"/><g fill="#ffdfc7"><path d="m479.269531 319.710938c-11.910156 0-21.566406-9.65625-21.566406-21.566407v-108.15625h43.132813v108.15625c0 11.910157-9.65625 21.566407-21.566407 21.566407zm0 0"/><path d="m358.800781 318.882812c-11.910156 0-21.566406-9.65625-21.566406-21.566406v-108.15625h43.132813v108.152344c0 11.914062-9.65625 21.570312-21.566407 21.570312zm0 0"/><path d="m461.59375 94.515625c0 3.464844-.410156 6.828125-1.191406 10.050781-4.523438 18.664063-21.324219 32.515625-41.363282 32.515625-23.507812 0-42.570312-19.0625-42.570312-42.566406 0-6.464844 1.445312-12.589844 4.027344-18.078125 6.792968-14.472656 21.496094-24.492188 38.539062-24.492188 23.507813 0 42.558594 19.0625 42.558594 42.570313zm0 0"/></g><path d="m461.59375 94.515625c0 3.464844-.410156 6.828125-1.191406 10.050781-40.550782-2.042968-65.605469-16.007812-79.90625-28.128906 6.792968-14.472656 21.496094-24.492188 38.539062-24.492188 23.507813 0 42.558594 19.0625 42.558594 42.570313zm0 0" fill="#fecaa8"/><path d="m408.648438 502.992188h-55.960938c-10.5625 0-15.433594-13.128907-7.429688-20.019532 14.480469-12.472656 32.960938-19.332031 52.074219-19.332031h11.316407c5.738281 0 10.386718 4.652344 10.386718 10.390625v18.574219c0 5.738281-4.652344 10.386719-10.386718 10.386719zm0 0" fill="#d0f4ef"/><path d="m429.425781 502.992188h55.957031c10.5625 0 15.4375-13.128907 7.433594-20.019532-14.484375-12.472656-32.964844-19.332031-52.078125-19.332031h-11.316406c-5.738281 0-10.386719 4.652344-10.386719 10.390625v18.574219c0 5.738281 4.652344 10.386719 10.390625 10.386719zm0 0" fill="#abe0da"/><path d="m376.472656 51.460938s21.515625 39.59375 94.15625 39.59375l-9.027344-48.578126h-85.128906zm0 0" fill="#b08989"/><path d="m380.15625 241.480469h77.546875v28.167969h-77.546875zm0 0" fill="#e6f072"/><path d="m136.851562 52.898438c0 3.28125-.300781 6.507812-.875 9.628906-.195312 1.054687-.421874 2.113281-.675781 3.144531-5.726562 23.035156-26.546875 40.113281-51.347656 40.113281-29.210937 0-52.886719-23.691406-52.886719-52.886718 0-2.433594.160156-4.820313.480469-7.171876.148437-1.125.34375-2.238281.5625-3.339843.792969-3.984375 2.054687-7.816407 3.695313-11.421875 8.332031-18.269532 26.765624-30.964844 48.148437-30.964844 28.632813 0 51.957031 22.757812 52.863281 51.175781.023438.5625.035156 1.136719.035156 1.722657zm0 0" fill="#fecaa8"/><path d="m136.851562 52.898438c0 3.28125-.300781 6.507812-.875 9.628906-.195312 1.054687-.421874 2.113281-.675781 3.144531-11.179687 2.433594-22.128906 3.671875-32.652343 3.671875-37.082032 0-60.746094-15.136719-71.101563-23.617188.148437-1.125.34375-2.238281.5625-3.339843.792969-3.984375 2.054687-7.816407 3.695313-11.421875 8.332031-18.269532 26.765624-30.964844 48.148437-30.964844 28.632813 0 51.957031 22.757812 52.863281 51.175781.023438.5625.035156 1.136719.035156 1.722657zm0 0" fill="#ffb38c"/><path d="m136.816406 51.171875c-67.875 16.875-101.011718-20.199219-101.011718-20.199219 8.332031-18.273437 26.765624-30.96874975 48.152343-30.96874975 28.632813 0 51.957031 22.75390575 52.859375 51.16796875zm0 0" fill="#336686"/><path d="m147.914062 56.113281c-3.917968 1.195313-7.726562 2.222657-11.4375 3.089844-12.359374 2.90625-23.652343 4.109375-33.851562 4.109375-38.941406 0-62.097656-17.492188-69.699219-24.363281.738281-2.761719 1.71875-5.429688 2.882813-7.984375 1-2.203125 2.152344-4.316406 3.441406-6.347656 1.058594.363281 2.050781.96875 2.902344 1.804687 5.699218 5.605469 36.121094 31.761719 93.839844 16.988281 2.421874-.609375 4.894531-1.296875 7.40625-2.070312 4.082031-1.246094 8.398437 1.050781 9.644531 5.128906 1.246093 4.082031-1.050781 8.394531-5.128907 9.644531zm0 0" fill="#336686"/><path d="m269.867188 479.105469h-50.929688c-4.230469 0-7.660156-3.433594-7.660156-7.664063v-131.5h66.253906v131.5c0 4.234375-3.429688 7.664063-7.664062 7.664063zm0 0" fill="#d6bcab"/><path d="m244.402344 483.3125c-4.265625 0-7.722656-3.460938-7.722656-7.726562v-96.144532c0-4.265625 3.457031-7.726562 7.722656-7.726562 4.269531 0 7.726562 3.460937 7.726562 7.726562v96.144532c0 4.265624-3.457031 7.726562-7.726562 7.726562zm0 0" fill="#bfa394"/><path d="m286.8125 339.945312v71.992188c0 6.335938-5.140625 11.472656-11.476562 11.472656h-61.859376c-6.335937 0-11.476562-5.140625-11.476562-11.472656v-71.992188zm0 0" fill="#1ee5ed"/><path d="m286.8125 339.945312v50.964844c-15.195312 0-27.546875-12.351562-27.546875-27.546875v-23.417969zm0 0" fill="#1abfc7"/><path d="m229.546875 339.945312v22.839844c0 15.195313-12.363281 27.546875-27.550781 27.546875v-50.386719zm0 0" fill="#1abfc7"/><path d="m301.988281 282.511719v74.226562h-115.167969v-74.226562c0-22.613281 18.328126-40.945313 40.941407-40.945313h33.285156c22.613281 0 40.941406 18.328125 40.941406 40.945313zm0 0" fill="#38aaff"/><path d="m232.632812 271.71875v85.019531h-15.453124v-85.019531c0-4.265625 3.460937-7.726562 7.722656-7.726562 4.269531 0 7.730468 3.460937 7.730468 7.726562zm0 0" fill="#279be2"/><path d="m271.628906 271.71875v85.019531h-15.453125v-85.019531c0-4.265625 3.460938-7.726562 7.726563-7.726562 4.261718 0 7.726562 3.460937 7.726562 7.726562zm0 0" fill="#279be2"/><path d="m301.992188 282.96875v80.394531c0 8.390625-6.804688 15.1875-15.183594 15.1875-8.386719 0-15.183594-6.796875-15.183594-15.1875v-80.394531zm0 0" fill="#fecaa8"/><path d="m271.625 282.96875h30.367188v52.667969h-30.367188zm0 0" fill="#f55"/><path d="m217.179688 282.382812v80.410157c0 8.378906-6.796876 15.183593-15.1875 15.183593-8.375 0-15.171876-6.804687-15.171876-15.183593v-80.410157zm0 0" fill="#fecaa8"/><path d="m186.820312 282.382812h30.359376v53.253907h-30.359376zm0 0" fill="#f55"/><path d="m285.359375 213.359375c0 22.613281-18.335937 40.949219-40.960937 40.949219-22.609376 0-40.949219-18.335938-40.949219-40.949219 0-.183594 0-.371094.011719-.554687.285156-22.367188 18.511718-40.40625 40.9375-40.40625 22.4375 0 40.660156 18.039062 40.949218 40.40625.011719.183593.011719.367187.011719.554687zm0 0" fill="#fecaa8"/><path d="m285.351562 212.804688c-2.0625.574218-4.214843.882812-6.398437.882812h-69.105469c-2.183594 0-4.328125-.296875-6.386718-.882812.289062-22.367188 18.511718-40.40625 40.9375-40.40625 22.441406 0 40.664062 18.039062 40.953124 40.40625zm0 0" fill="#ffb38c"/><path d="m252.128906 379.445312v43.96875h-15.453125v-43.96875c0-4.273437 3.460938-7.726562 7.722657-7.726562 4.277343 0 7.730468 3.449219 7.730468 7.726562zm0 0" fill="#1abfc7"/><path d="m237.089844 502.992188h-39.394532c-7.4375 0-10.867187-9.242188-5.230468-14.09375 10.195312-8.78125 23.203125-13.609376 36.660156-13.609376h7.964844c4.039062 0 7.3125 3.273438 7.3125 7.316407v13.074219c0 4.039062-3.273438 7.3125-7.3125 7.3125zm0 0" fill="#f55"/><path d="m251.71875 502.992188h39.394531c7.433594 0 10.867188-9.242188 5.230469-14.09375-10.195312-8.78125-23.203125-13.609376-36.660156-13.609376h-7.964844c-4.039062 0-7.316406 3.273438-7.316406 7.316407v13.074219c0 4.039062 3.277344 7.3125 7.316406 7.3125zm0 0" fill="#f72b2b"/><path d="m209.851562 201.324219c-7.65625 0-13.214843-7.453125-10.851562-14.734375 6.207031-19.144532 24.191406-32.988282 45.402344-32.988282 21.214844 0 39.199218 13.84375 45.40625 32.988282 2.363281 7.285156-3.195313 14.734375-10.851563 14.734375zm0 0" fill="#ffbd47"/><path d="m269.359375 184.6875v16.636719h-15.453125v-16.636719c0-4.261719 3.460938-7.722656 7.726562-7.722656 4.265626 0 7.726563 3.460937 7.726563 7.722656zm0 0" fill="#ff9921"/></svg>