<svg height="512pt" viewBox="0 0 512.001 512" width="512pt" xmlns="http://www.w3.org/2000/svg"><path d="m205.398438 65.6875-112.148438-46.265625v98.78125l112.148438-46.265625c3.121093-1.285156 3.121093-4.964844 0-6.25zm0 0" fill="#ea3f3f"/><path d="m115.609375 28.644531-22.359375-9.222656v98.78125l22.359375-9.222656zm0 0" fill="#d4352f"/><path d="m502.796875 286.878906c-62.929687 4.453125-124.976563 17.886719-184.222656 40.019532-20.375 7.609374-41.308594 13.488281-62.574219 17.640624 2.449219.871094 4.902344 1.738282 7.34375 2.652344 34.054688 12.71875 70.117188 19.234375 106.476562 19.234375h130.839844c6.265625 0 11.339844 5.074219 11.339844 11.332031v-82.34375c0-4.980468-4.234375-8.886718-9.203125-8.535156zm0 0" fill="#76ab29"/><path d="m500.804688 344.808594h-129.179688c-25.609375 0-50.863281-3.480469-75.363281-10.34375-13.246094 4.058594-26.6875 7.421875-40.261719 10.074218 2.449219.871094 4.902344 1.738282 7.339844 2.648438 34.054687 12.722656 70.121094 19.238281 106.476562 19.238281h130.84375c6.261719 0 11.339844 5.070313 11.339844 11.332031v-30.910156c-3.484375-1.316406-7.257812-2.039062-11.195312-2.039062zm0 0" fill="#6c9b1b"/><path d="m500.804688 365.414062h-129.179688c-35.894531 0-71.5-6.433593-105.121094-18.992187-94.007812-35.113281-159.410156-31.699219-252.796875-31.699219-7.570312 0-13.707031 6.132813-13.707031 13.699219v170.792969c0 7.0625 5.730469 12.785156 12.796875 12.785156h483.667969c8.582031 0 15.535156-6.953125 15.535156-15.527344v-119.871094c0-6.179687-5.011719-11.1875-11.195312-11.1875zm0 0" fill="#9ad14b"/><path d="m20.605469 499.214844v-170.792969c0-7.5625 6.136719-13.699219 13.707031-13.699219 11.007812 0 21.613281-.046875 31.933594-.070312-16.710938-.058594-34.074219.070312-52.535156.070312-7.574219 0-13.710938 6.132813-13.710938 13.699219v170.792969c0 7.0625 5.730469 12.785156 12.796875 12.785156h20.601563c-7.0625 0-12.792969-5.722656-12.792969-12.785156zm0 0" fill="#76ab29"/><path d="m512 416.765625h-236.289062c-10.316407 0-18.679688 8.359375-18.679688 18.667969 0 10.3125 8.363281 18.667968 18.679688 18.667968h236.289062zm0 0" fill="#e4e3e1"/><path d="m260.140625 425.132812c-1.960937 2.953126-3.109375 6.492188-3.109375 10.300782 0 10.3125 8.363281 18.667968 18.679688 18.667968h236.289062v-20.601562h-236.289062c-6.503907 0-12.226563-3.328125-15.570313-8.367188zm0 0" fill="#d1d0cf"/><path d="m95.007812 451.28125v-437.582031c0-7.566407-6.140624-13.699219-13.710937-13.699219s-13.707031 6.132812-13.707031 13.699219v429.378906c5.667968 3.878906 15.507812 6.867187 27.417968 8.203125zm0 0" fill="#e4e3e1"/><path d="m88.195312 14.210938c0-3.59375 1.347657-6.867188 3.546876-9.371094-2.511719-2.957032-6.257813-4.839844-10.445313-4.839844-7.570313 0-13.707031 6.132812-13.707031 13.699219v429.378906c4.546875 3.113281 11.777344 5.644531 20.605468 7.21875zm0 0" fill="#d1d0cf"/><path d="m67.589844 427.792969c-3.339844 2.289062-5.242188 4.886719-5.242188 7.640625 0 2.757812 1.898438 5.355468 5.242188 7.644531zm0 0" fill="#353744"/><path d="m109.09375 418.820312c-4.910156 0-9.640625.269532-14.085938.769532v31.691406c4.441407.5 9.175782.769531 14.085938.769531 25.8125 0 46.742188-7.4375 46.742188-16.617187 0-9.175782-20.929688-16.613282-46.742188-16.613282zm0 0" fill="#3e4151"/><path d="m115.609375 418.984375c-2.128906-.105469-4.304687-.164063-6.515625-.164063-4.910156 0-9.640625.269532-14.085938.769532v31.691406c4.441407.5 9.175782.769531 14.085938.769531 2.210938 0 4.386719-.058593 6.515625-.164062zm0 0" fill="#353744"/></svg>