<svg height="511pt" viewBox="0 -19 511.99899 511" width="511pt" xmlns="http://www.w3.org/2000/svg"><path d="m484.019531 111.855469v252.539062h-456.035156v-137.875c0-12.132812 4.921875-23.128906 12.882813-31.078125 7.960937-7.960937 18.945312-12.882812 31.089843-12.882812 24.285157 0 43.96875-19.6875 43.96875-43.972656v-26.730469c0-40.992188 33.226563-74.21875 74.21875-74.21875h219.644531c40.992188 0 74.230469 33.226562 74.230469 74.21875zm0 0" fill="#60daff"/><path d="m484.019531 173.800781v190.59375h-456.035156v-72.402343c21.328125-21.929688 51.144531-35.5625 84.082031-35.5625h48.132813c18.933593 0 34.335937-15.398438 34.335937-34.335938 0-61.53125 50.058594-111.589844 111.578125-111.589844h49.828125c52.117188 0 98.550782 24.835938 128.078125 63.296875zm0 0" fill="#38aaff"/><path d="m213.019531 222.089844c0 29.175781-23.648437 52.824218-52.824219 52.824218h-48.128906c-54.632812 0-98.921875 44.289063-98.921875 98.925782 0 54.632812 44.289063 98.921875 98.921875 98.921875h261.457032c69.21875 0 125.335937-56.113281 125.335937-125.335938v-75.515625c0-78.933594-63.988281-142.917968-142.917969-142.917968h-49.820312c-51.417969 0-93.101563 41.679687-93.101563 93.097656zm0 0" fill="#fff0cf"/><path d="m498.855469 271.910156v75.511719c0 69.226563-56.113281 125.339844-125.328125 125.339844h-27.808594c69.214844 0 125.328125-56.113281 125.328125-125.339844v-75.511719c0-78.929687-63.980469-142.921875-142.914063-142.921875h27.808594c78.933594 0 142.914063 63.992188 142.914063 142.921875zm0 0" fill="#ead1c1"/><path d="m306.28125 100.28125c-8.527344 0-16.054688-5.128906-19.175781-13.066406-.785157-1.988282-2.667969-3.273438-4.800781-3.273438-2.132813 0-4.019532 1.285156-4.800782 3.273438-3.125 7.9375-10.652344 13.066406-19.179687 13.066406-8.527344 0-16.054688-5.128906-19.175781-13.066406-.785157-1.988282-2.667969-3.273438-4.800782-3.273438-2.132812 0-4.019531 1.285156-4.800781 3.273438-1.5625 3.972656-6.046875 5.925781-10.019531 4.359375-3.96875-1.5625-5.921875-6.046875-4.359375-10.019531 3.125-7.9375 10.652343-13.066407 19.179687-13.066407s16.054688 5.128907 19.179688 13.066407c.78125 1.988281 2.664062 3.273437 4.796875 3.273437 2.132812 0 4.019531-1.285156 4.800781-3.273437 3.125-7.9375 10.652344-13.066407 19.179688-13.066407 8.527343 0 16.054687 5.128907 19.179687 13.066407.78125 1.988281 2.664063 3.273437 4.800781 3.273437 2.132813 0 4.015625-1.285156 4.796875-3.273437 2.539063-6.449219 8.09375-11.160157 14.855469-12.609376 4.179688-.894531 8.28125 1.765626 9.171875 5.9375.894531 4.175782-1.765625 8.28125-5.9375 9.175782-1.660156.355468-3.082031 1.5625-3.710937 3.15625-3.125 7.9375-10.652344 13.066406-19.179688 13.066406zm0 0" fill="#38aaff"/><path d="m317.734375 388.058594c-6.660156 0-12.058594-5.398438-12.058594-12.058594v-60.652344h24.113281v60.652344c0 6.660156-5.394531 12.058594-12.054687 12.058594zm0 0" fill="#df9563"/><path d="m293.90625 303.925781h23.609375l-8.960937-23.453125c-1.152344-3.011718-4.523438-4.519531-7.535157-3.367187l-9.699219 3.703125c-3.011718 1.152344-4.519531 4.523437-3.367187 7.535156zm0 0" fill="#fecaa8"/><path d="m149.113281 304.335938c-2.371093-.285157-4.648437-1.410157-6.347656-3.339844-3.671875-4.171875-3.269531-10.53125.902344-14.203125l39.058593-34.390625c8.199219-7.21875 20.558594-6.714844 28.140626 1.152344l30.753906 31.910156c3.859375 4.003906 3.738281 10.375-.261719 14.230468-4 3.855469-10.371094 3.742188-14.230469-.261718l-30.753906-31.910156c-.09375-.097657-.246094-.101563-.347656-.015626l-39.058594 34.390626c-2.238281 1.972656-5.109375 2.769531-7.855469 2.4375zm0 0" fill="#fecaa8"/><path d="m380.199219 283.453125c-.980469 1.410156-2.070313 2.707031-3.246094 3.878906-.402344.394531-.8125.78125-1.230469 1.148438-9.332031 8.191406-23.375 9.324219-34.035156 1.925781-12.554688-8.714844-15.667969-25.957031-6.957031-38.507812.726562-1.046876 1.507812-2.023438 2.347656-2.941407.398437-.4375.816406-.855469 1.238281-1.265625 1.527344-1.476562 3.214844-2.746094 4.996094-3.808594 9.03125-5.367187 20.738281-5.324218 29.929688 1.054688 12.308593 8.542969 15.542968 25.28125 7.457031 37.765625-.160157.246094-.324219.496094-.5.75zm0 0" fill="#fecaa8"/><path d="m380.699219 282.699219c-34.207031-12.992188-37.390625-38.8125-37.390625-38.8125 9.03125-5.371094 20.742187-5.328125 29.933594 1.050781 12.308593 8.542969 15.542968 25.28125 7.457031 37.761719zm0 0" fill="#336686"/><path d="m403.113281 147.421875h20.226563v142.0625h-20.226563zm0 0" fill="#c87c5b"/><path d="m433.332031 412.992188h-40.210937v-127.609376c0-5.621093 4.554687-10.175781 10.171875-10.175781h19.867187c5.617188 0 10.171875 4.554688 10.171875 10.175781zm0 0" fill="#eea97b"/><path d="m482.308594 153.230469c-20.683594-16.613281-46.476563-21.574219-67.929688-15.25-2.75.8125-4.671875 3.375-4.601562 6.242187.144531 6.148438 2.902344 12.199219 8.074218 16.351563 4.628907 3.71875 10.320313 5.210937 15.796876 4.636719.617187 5.46875 3.300781 10.703124 7.933593 14.421874 4.628907 3.71875 10.320313 5.210938 15.792969 4.636719.621094 5.46875 3.304688 10.703125 7.933594 14.421875 4.632812 3.71875 10.324218 5.210938 15.796875 4.636719.621093 5.46875 3.304687 10.703125 7.933593 14.421875 5.171876 4.15625 11.671876 5.542969 17.710938 4.359375 2.8125-.550781 4.898438-2.984375 5.097656-5.839844 1.550782-22.3125-8.859375-46.429687-29.539062-63.039062zm0 0" fill="#a2d961"/><path d="m343.042969 122.976562c-25.128907 8.496094-43.1875 27.570313-49.394531 49.054688-.796876 2.753906.332031 5.753906 2.78125 7.238281 5.265624 3.1875 11.847656 4.117188 18.132812 1.988281 5.625-1.902343 9.941406-5.898437 12.402344-10.820312 4.941406 2.417969 10.800781 2.972656 16.425781 1.070312 5.628906-1.902343 9.945313-5.898437 12.40625-10.820312 4.941406 2.417969 10.800781 2.972656 16.425781 1.070312 5.628906-1.902343 9.945313-5.898437 12.40625-10.824218 4.941406 2.421875 10.800782 2.976562 16.425782 1.074218 6.285156-2.128906 10.953124-6.859374 13.203124-12.585937 1.046876-2.667969.121094-5.734375-2.183593-7.441406-17.972657-13.308594-43.902344-17.503907-69.03125-9.003907zm0 0" fill="#76bc4d"/><path d="m387.574219 75.34375c-17.761719-14.113281-39.84375-18.246094-58.167969-12.742188-2.347656.703126-3.980469 2.90625-3.910156 5.355469.152344 5.261719 2.539062 10.421875 6.980468 13.953125 3.976563 3.160156 8.851563 4.410156 13.53125 3.894532.554688 4.675781 2.871094 9.140624 6.847657 12.300781 3.976562 3.164062 8.851562 4.414062 13.53125 3.894531.554687 4.675781 2.871093 9.144531 6.847656 12.304688 3.976563 3.160156 8.851563 4.410156 13.53125 3.894531.554687 4.675781 2.871094 9.140625 6.847656 12.304687 4.441407 3.53125 10.007813 4.6875 15.167969 3.648438 2.402344-.484375 4.175781-2.574219 4.335938-5.019532 1.226562-19.089843-7.78125-39.671874-25.542969-53.789062zm0 0" fill="#a2d961"/><path d="m438.882812 75.34375c17.761719-14.113281 39.84375-18.246094 58.164063-12.742188 2.347656.703126 3.980469 2.90625 3.910156 5.355469-.152343 5.261719-2.535156 10.421875-6.976562 13.953125-3.976563 3.160156-8.855469 4.410156-13.53125 3.894532-.554688 4.675781-2.875 9.140624-6.847657 12.300781-3.976562 3.164062-8.855468 4.414062-13.53125 3.894531-.554687 4.675781-2.875 9.144531-6.851562 12.304688-3.972656 3.160156-8.851562 4.410156-13.527344 3.894531-.554687 4.675781-2.875 9.140625-6.851562 12.304687-4.441406 3.53125-10.007813 4.6875-15.164063 3.648438-2.402343-.484375-4.179687-2.574219-4.335937-5.019532-1.230469-19.089843 7.78125-39.671874 25.542968-53.789062zm0 0" fill="#76bc4d"/><path d="m445.28125 134.519531c0 11.332031-9.1875 20.523438-20.523438 20.523438-11.332031 0-20.523437-9.191407-20.523437-20.523438 0-11.335937 9.191406-20.523437 20.523437-20.523437 11.335938 0 20.523438 9.1875 20.523438 20.523437zm0 0" fill="#dfe266"/><path d="m424.757812 155.042969c0 10.085937-8.175781 18.261719-18.261718 18.261719-10.085938 0-18.261719-8.175782-18.261719-18.261719 0-10.085938 8.175781-18.265625 18.261719-18.265625 10.085937 0 18.261718 8.179687 18.261718 18.265625zm0 0" fill="#e6f072"/><g fill="#c87c5b"><path d="m393.117188 301.605469h40.21875v15.453125h-40.21875zm0 0"/><path d="m393.117188 324.226562h40.21875v15.453126h-40.21875zm0 0"/><path d="m393.117188 346.839844h40.21875v15.453125h-40.21875zm0 0"/><path d="m393.117188 369.460938h40.21875v15.453124h-40.21875zm0 0"/><path d="m109.71875 87.671875h20.230469v201.8125h-20.230469zm0 0"/></g><path d="m139.941406 412.992188h-40.214844v-127.609376c0-5.621093 4.554688-10.175781 10.171876-10.175781h19.867187c5.617187 0 10.171875 4.554688 10.171875 10.175781v127.609376zm0 0" fill="#eea97b"/><path d="m188.914062 87.480469c-20.683593-16.613281-46.476562-21.574219-67.929687-15.25-2.746094.8125-4.671875 3.375-4.601563 6.242187.144532 6.148438 2.902344 12.199219 8.074219 16.351563 4.628907 3.71875 10.324219 5.210937 15.796875 4.636719.617188 5.46875 3.304688 10.703124 7.933594 14.421874s10.320312 5.210938 15.796875 4.636719c.617187 5.46875 3.300781 10.703125 7.929687 14.421875 4.632813 3.71875 10.324219 5.210938 15.796876 4.636719.621093 5.46875 3.304687 10.703125 7.933593 14.421875 5.171875 4.15625 11.671875 5.542969 17.710938 4.359375 2.8125-.550781 4.898437-2.984375 5.097656-5.839844 1.550781-22.3125-8.859375-46.429687-29.539063-63.039062zm0 0" fill="#a2d961"/><path d="m49.648438 63.226562c-25.128907 8.496094-43.1875 27.570313-49.394532 49.054688-.796875 2.753906.328125 5.753906 2.78125 7.238281 5.265625 3.1875 11.84375 4.117188 18.128906 1.988281 5.628907-1.902343 9.945313-5.898437 12.40625-10.820312 4.941407 2.417969 10.800782 2.972656 16.425782 1.070312 5.625-1.902343 9.945312-5.898437 12.40625-10.820312 4.941406 2.417969 10.800781 2.972656 16.425781 1.070312 5.625-1.902343 9.945313-5.898437 12.40625-10.824218 4.941406 2.421875 10.800781 2.976562 16.425781 1.074218 6.285156-2.128906 10.953125-6.859374 13.203125-12.585937 1.046875-2.667969.121094-5.734375-2.183593-7.441406-17.972657-13.308594-43.902344-17.503907-69.03125-9.003907zm0 0" fill="#76bc4d"/><path d="m94.179688 15.59375c-17.761719-14.117188-39.84375-18.25-58.164063-12.742188-2.351563.703126-3.984375 2.90625-3.914063 5.355469.152344 5.261719 2.539063 10.421875 6.980469 13.953125 3.976563 3.160156 8.851563 4.410156 13.53125 3.894532.554688 4.675781 2.871094 9.140624 6.847657 12.300781 3.976562 3.164062 8.851562 4.414062 13.53125 3.894531.554687 4.675781 2.871093 9.144531 6.847656 12.304688 3.976562 3.160156 8.851562 4.410156 13.53125 3.894531.554687 4.675781 2.871094 9.140625 6.847656 12.304687 4.441406 3.53125 10.007812 4.6875 15.167969 3.648438 2.402343-.484375 4.179687-2.574219 4.335937-5.019532 1.226563-19.089843-7.78125-39.671874-25.542968-53.789062zm0 0" fill="#a2d961"/><path d="m145.488281 15.59375c17.761719-14.117188 39.84375-18.25 58.164063-12.746094 2.347656.707032 3.980468 2.90625 3.910156 5.359375-.152344 5.257813-2.535156 10.417969-6.976562 13.949219-3.976563 3.164062-8.851563 4.414062-13.53125 3.894531-.554688 4.675781-2.871094 9.144531-6.847657 12.304688-3.976562 3.160156-8.851562 4.410156-13.53125 3.894531-.554687 4.675781-2.875 9.144531-6.847656 12.304688-3.976563 3.160156-8.851563 4.410156-13.53125 3.894531-.554687 4.675781-2.875 9.140625-6.847656 12.300781-4.445313 3.53125-10.007813 4.691406-15.167969 3.652344-2.402344-.484375-4.179688-2.574219-4.335938-5.019532-1.230468-19.089843 7.78125-39.671874 25.542969-53.789062zm0 0" fill="#76bc4d"/><path d="m151.886719 74.769531c0 11.332031-9.1875 20.519531-20.523438 20.519531-11.332031 0-20.523437-9.1875-20.523437-20.519531 0-11.335937 9.191406-20.523437 20.523437-20.523437 11.335938 0 20.523438 9.1875 20.523438 20.523437zm0 0" fill="#dfe266"/><path d="m131.363281 95.292969c0 10.085937-8.175781 18.261719-18.261719 18.261719-10.085937 0-18.261718-8.175782-18.261718-18.261719 0-10.085938 8.175781-18.265625 18.261718-18.265625 10.085938 0 18.261719 8.179687 18.261719 18.265625zm0 0" fill="#e6f072"/><path d="m99.722656 301.605469h40.21875v15.453125h-40.21875zm0 0" fill="#c87c5b"/><path d="m99.722656 324.226562h40.21875v15.453126h-40.21875zm0 0" fill="#c87c5b"/><path d="m99.722656 346.839844h40.21875v15.453125h-40.21875zm0 0" fill="#c87c5b"/><path d="m99.722656 369.460938h40.21875v15.453124h-40.21875zm0 0" fill="#c87c5b"/><path d="m207.597656 293.667969 26.6875-20.027344c3.550782-2.664063 8.546875-2.191406 11.53125 1.09375l23.292969 25.601563-33.195313 25.394531zm0 0" fill="#1abfc7"/><path d="m265.484375 297.09375c-61.894531 0-121.421875-22.457031-150.839844-35.53125-6.5-2.890625-12.917969 4.195312-9.378906 10.363281 31.820313 55.5 91.648437 92.886719 160.21875 92.886719 68.539063 0 128.355469-37.363281 160.1875-92.832031 3.535156-6.160157-2.875-13.269531-9.359375-10.378907-29.34375 13.085938-88.667969 35.492188-150.828125 35.492188zm0 0" fill="#38aaff"/><path d="m425.671875 271.976562c-31.832031 55.476563-91.644531 92.839844-160.191406 92.839844-68.558594 0-128.394531-37.382812-160.214844-92.890625-3.546875-6.171875 2.882813-13.257812 9.375-10.363281 1.367187.605469 2.800781 1.234375 4.304687 1.882812 33.726563 43.992188 86.824219 72.351563 146.535157 72.351563 59.6875 0 112.75-28.332031 146.480469-72.277344 1.515624-.660156 2.964843-1.296875 4.359374-1.914062 6.476563-2.898438 12.882813 4.210937 9.351563 10.371093zm0 0" fill="#2081f6"/><path d="m172.605469 428.394531c-7.667969-19.472656-26.628907-33.261719-48.820313-33.261719-22.195312 0-41.15625 13.789063-48.820312 33.261719zm0 0" fill="#fff0cf"/><path d="m74.960938 436.121094c-.941407 0-1.898438-.171875-2.828126-.539063-3.96875-1.5625-5.921874-6.046875-4.359374-10.019531 9.125-23.179688 31.109374-38.15625 56.007812-38.15625 18.386719 0 35.523438 8.246094 47.019531 22.628906 5.398438 6.757813 13.660157 10.632813 22.664063 10.632813 4.265625 0 7.726562 3.457031 7.726562 7.726562 0 4.265625-3.460937 7.726563-7.726562 7.726563-13.726563 0-26.386719-5.992188-34.734375-16.4375-8.546875-10.695313-21.285157-16.824219-34.949219-16.824219-18.503906 0-34.847656 11.132813-41.628906 28.363281-1.195313 3.042969-4.109375 4.898438-7.191406 4.898438zm0 0" fill="#ead1c1"/><path d="m348.808594 428.394531c7.667968-19.472656 26.628906-33.261719 48.820312-33.261719 22.195313 0 41.15625 13.789063 48.820313 33.261719zm0 0" fill="#fff0cf"/><path d="m446.453125 436.121094c-3.082031 0-5.996094-1.855469-7.195313-4.894532-6.78125-17.234374-23.121093-28.367187-41.628906-28.367187-13.664062 0-26.398437 6.132813-34.945312 16.824219-8.351563 10.445312-21.011719 16.4375-34.738282 16.4375-4.265624 0-7.726562-3.460938-7.726562-7.726563s3.460938-7.726562 7.726562-7.726562c9.003907 0 17.265626-3.875 22.667969-10.632813 11.492188-14.378906 28.628907-22.628906 47.015625-22.628906 24.902344 0 46.886719 14.976562 56.011719 38.160156 1.5625 3.96875-.390625 8.457032-4.363281 10.019532-.925782.363281-1.882813.535156-2.824219.535156zm0 0" fill="#ead1c1"/><path d="m287.628906 427.632812c-.011718 0-.019531 0-.03125 0h-.125c-4.265625-.015624-7.710937-3.488281-7.695312-7.757812.019531-4.253906 3.476562-7.691406 7.726562-7.691406h.03125.125c4.265625.015625 7.710938 3.488281 7.695313 7.757812-.019531 4.253906-3.476563 7.691406-7.726563 7.691406zm0 0" fill="#ead1c1"/><path d="m279.820312 221.683594c-.011718 0-.023437 0-.035156 0h-.121094c-4.269531-.019532-7.714843-3.492188-7.695312-7.757813.015625-4.269531 3.480469-7.710937 7.757812-7.695312h.125c4.265626.019531 7.710938 3.488281 7.691407 7.757812-.015625 4.257813-3.472657 7.695313-7.722657 7.695313zm0 0" fill="#ead1c1"/><path d="m269.171875 441.113281c-.011719 0-.019531 0-.03125 0h-.125c-4.265625-.019531-7.710937-3.492187-7.695313-7.757812.019532-4.257813 3.472657-7.695313 7.726563-7.695313h.03125.125c4.265625.015625 7.710937 3.488282 7.695313 7.757813-.019532 4.253906-3.476563 7.695312-7.726563 7.695312zm0 0" fill="#ead1c1"/></svg>