<svg height="512pt" viewBox="-93 0 512 512" width="512pt" xmlns="http://www.w3.org/2000/svg"><path d="m170.164062 431.96875v63.558594c0 9.191406 7.515626 16.472656 16.46875 16.472656h122.882813c8.957031 0 16.46875-7.277344 16.46875-16.472656 0-1.632813 0-28.941406 0-63.558594zm0 0" fill="#e2385e"/><path d="m206.222656 495.527344c0-2.429688 0-29.464844 0-63.558594h-36.058594v63.558594c0 9.191406 7.511719 16.472656 16.46875 16.472656h36.058594c-8.957031 0-16.46875-7.28125-16.46875-16.472656zm0 0" fill="#da1c4b"/><path d="m325.984375 299.109375c0-9.53125 0-15.898437 0-17.609375 0-23.445312-7.253906-46.320312-20.765625-65.480469-12.898438-18.285156-18.636719-30.882812-21.652344-44.183593l-4.308594 2.96875v.003906c-24.246093 16.699218-18.488281 12.734375-26.023437 17.925781-3.105469 2.140625-7.214844 2.140625-10.320313 0-8.609374-5.929687-1.441406-.992187-26.019531-17.925781v-.003906l-4.304687-2.964844c-3.011719 13.34375-8.742188 25.867187-21.65625 44.179687-13.515625 19.160157-20.769532 42.035157-20.769532 65.480469v17.609375zm0 0" fill="#e2385e"/><path d="m226.945312 216.019531c6.53125-9.261719 11.21875-17.039062 14.652344-24.195312-6.574218-4.527344-1.515625-1.042969-24.703125-17.019531l-4.304687-2.964844c-3.011719 13.34375-8.742188 25.863281-21.65625 44.179687-13.515625 19.160157-20.769532 42.03125-20.769532 65.480469v17.605469h36.011719c0-9.9375 0-16.382813 0-17.605469 0-23.445312 7.253907-46.320312 20.769531-65.480469zm0 0" fill="#da1c4b"/><path d="m284.085938 173.707031c-3.277344-12.542969-2.640626-11.148437-10.167969-106.644531-6.410157 0-45.246094 0-51.683594 0-7.375 93.492188-6.839844 93.902344-10.171875 106.644531l.003906.003907 4.828125 3.324218v.003906c24.582031 16.933594 17.414063 11.996094 26.019531 17.925782 3.109376 2.140625 7.214844 2.140625 10.324219 0 7.535157-5.191406 1.777344-1.226563 26.019531-17.925782v-.003906l4.828126-3.324218zm0 0" fill="#8ec13f"/><path d="m252.902344 177.039062c-2.90625-2.007812-4.289063-5.59375-3.476563-9.03125l.136719-.582031c3.328125-12.746093 1.308594-6.871093 8.683594-100.363281h-36.015625c-7.371094 93.492188-6.839844 93.902344-10.167969 106.644531l.003906.003907 4.828125 3.324218c24.574219 16.933594 17.417969 12 26.011719 17.925782 3.109375 2.140624 7.226562 2.140624 10.335938 0 5.65625-3.898438 3.816406-2.632813 12.839843-8.847657-2.917969-2.007812-7.066406-4.867187-13.179687-9.074219zm0 0" fill="#7cad27"/><path d="m276.574219 100.769531-2.65625-33.710937c-7.496094 0-44.191407 0-51.6875 0l-2.65625 33.710937zm0 0" fill="#7cad27"/><path d="m222.230469 67.058594c-1.015625 12.925781-1.886719 24.0625-2.632813 33.710937h36.066406c.703126-9.511719 1.550782-20.636719 2.582032-33.710937zm0 0" fill="#75a022"/><path d="m273.917969 0h-51.6875c-6.515625 0-11.796875 5.335938-11.796875 11.917969v43.90625c0 6.582031 5.28125 11.917969 11.796875 11.917969h51.6875c6.515625 0 11.796875-5.335938 11.796875-11.917969v-43.90625c0-6.582031-5.28125-11.917969-11.796875-11.917969zm0 0" fill="#4d6777"/><path d="m246.445312 55.824219v-43.90625c0-6.582031 5.28125-11.917969 11.796876-11.917969h-36.011719c-6.515625 0-11.796875 5.335938-11.796875 11.917969v43.90625c0 6.582031 5.28125 11.917969 11.796875 11.917969h36.015625c-6.519532 0-11.800782-5.335938-11.800782-11.917969zm0 0" fill="#394d5c"/><path d="m210.433594 33.691406v22.132813c0 6.582031 5.28125 11.917969 11.796875 11.917969h51.6875c6.515625 0 11.796875-5.335938 11.796875-11.917969v-22.132813zm0 0" fill="#394d5c"/><path d="m258.242188 67.742188c-6.515626 0-11.796876-5.335938-11.796876-11.917969v-22.132813h-36.011718v22.132813c0 6.585937 5.285156 11.917969 11.796875 11.917969zm0 0" fill="#2b3f4c"/><path d="m170.164062 296.59375v137.890625h155.820313c0-2.246094 0-133.746094 0-137.890625-4.832031 0-152.320313 0-155.820313 0zm0 0" fill="#d7f7ff"/><path d="m170.164062 296.59375v137.890625h36.058594c0-2.246094 0-133.746094 0-137.890625-1.121094 0-35.25 0-36.058594 0zm0 0" fill="#b7e9f9"/><path d="m286.53125 364.164062c0 21.238282-17.21875 38.457032-38.457031 38.457032s-38.457031-17.21875-38.457031-38.457032c0-21.238281 17.21875-38.457031 38.457031-38.457031s38.457031 17.21875 38.457031 38.457031zm0 0" fill="#b7e9f9"/><path d="m266.105469 330.191406c-5.378907-2.859375-11.515625-4.484375-18.03125-4.484375-21.238281 0-38.457031 17.21875-38.457031 38.457031 0 21.238282 17.21875 38.457032 38.457031 38.457032 6.519531 0 12.652343-1.625 18.03125-4.484375-27.21875-14.476563-27.195313-53.480469 0-67.945313zm0 0" fill="#87cee9"/><path d="m141.679688 466.828125c-11.824219-8.15625-18.882813-21.601563-18.882813-35.964844v-61.992187c-8.5 0-14.996094 0-23.496094 0v61.992187c0 14.363281-7.0625 27.808594-18.882812 35.964844l-28.484375 20.683594h118.230468zm0 0" fill="#d7f7ff"/><path d="m123.808594 440.113281c-.652344-3.011719-1.011719-6.105469-1.011719-9.25v-61.992187c-8.5 0-14.996094 0-23.496094 0v61.992187c0 14.363281-7.0625 27.8125-18.882812 35.964844l-28.484375 20.683594h25.519531l28.484375-20.683594c9.234375-6.371094 15.542969-15.972656 17.871094-26.714844zm0 0" fill="#b7e9f9"/><path d="m177.921875 486.480469h-133.746094c-4.992187 0-9.039062 4.050781-9.039062 9.042969v7.4375c0 4.992187 4.046875 9.039062 9.039062 9.039062h133.746094c4.992187 0 9.039063-4.046875 9.039063-9.039062v-7.4375c0-4.996094-4.046876-9.042969-9.039063-9.042969zm0 0" fill="#b7e9f9"/><path d="m177.921875 496.03125h-133.746094c-3.449219 0-6.445312-1.933594-7.96875-4.773438-.683593 1.269532-1.070312 2.722657-1.070312 4.265626v7.433593c0 4.992188 4.046875 9.042969 9.039062 9.042969h133.746094c4.992187 0 9.039063-4.050781 9.039063-9.042969v-7.433593c0-1.542969-.386719-2.996094-1.070313-4.265626-1.523437 2.839844-4.519531 4.773438-7.96875 4.773438zm0 0" fill="#87cee9"/><path d="m85.53125 341.367188v16.347656c0 7.269531 5.945312 13.21875 13.21875 13.21875h24.597656c7.269532 0 13.21875-5.949219 13.21875-13.21875v-16.347656c-11.175781 0-39.027344 0-51.035156 0zm0 0" fill="#b7e9f9"/><path d="m113.503906 357.714844v-16.347656c-10.539062 0-21.535156 0-27.972656 0v16.347656c0 7.269531 5.945312 13.21875 13.21875 13.21875h24.597656c.574219 0 1.132813-.050782 1.6875-.121094-6.476562-.839844-11.53125-6.402344-11.53125-13.097656zm0 0" fill="#87cee9"/><path d="m215.300781 137.613281h-208.503906c-4.1875 0-7.378906 3.75-6.7070312 7.882813l5.9882812 36.933594c21.488281-7.847657 60.800781-15.527344 104.972656 8.019531 42.339844 22.566406 80.21875 16.449219 102.210938 8.992187l8.746093-53.945312c.671876-4.132813-2.519531-7.882813-6.707031-7.882813zm0 0" fill="#d7f7ff"/><path d="m139.019531 343.429688c29.257813 0 54.117188-19.90625 58.484375-46.828126l16.109375-99.339843c-21.941406 7.511719-60 13.8125-102.566406-8.875-44.382813-23.65625-83.867187-15.792969-105.285156-7.90625l18.832031 116.121093c4.367188 26.921876 29.226562 46.828126 58.484375 46.828126zm0 0" fill="#e2385e"/><path d="m36.148438 145.496094c-.671876-4.132813 2.519531-7.882813 6.703124-7.882813h-36.054687c-4.1875 0-7.378906 3.75-6.7070312 7.882813l5.9882812 36.933594c8.878906-3.242188 20.804687-6.449219 34.851563-7.445313-1.597657-9.847656-4.78125-29.488281-4.78125-29.488281zm0 0" fill="#b7e9f9"/><g fill="#da1c4b"><path d="m119.136719 343.429688c-29.257813 0-54.117188-19.90625-58.484375-46.828126l-18.832032-116.121093s-.507812-3.140625-1.21875-7.535157c-14.074218 1.035157-25.996093 4.277344-34.839843 7.535157l18.832031 116.121093c4.367188 26.921876 29.226562 46.824219 58.484375 46.824219h55.945313-19.886719zm0 0"/><path d="m160.3125 250.023438c-1.433594-6.429688-7.808594-10.484376-14.238281-9.050782-6.433594 1.433594-10.484375 7.804688-9.050781 14.238282 1.429687 6.429687 7.804687 10.484374 14.238281 9.050781 6.429687-1.433594 10.484375-7.808594 9.050781-14.238281zm0 0"/><path d="m100.09375 291.113281c0 9.867188-8 17.871094-17.871094 17.871094-9.867187 0-17.871094-8.003906-17.871094-17.871094 0-9.871093 8.003907-17.871093 17.871094-17.871093 9.871094 0 17.871094 8 17.871094 17.871093zm0 0"/></g><path d="m86.945312 291.113281c0-5.585937 2.5625-10.566406 6.574219-13.84375-3.078125-2.515625-7.007812-4.027343-11.296875-4.027343-9.867187 0-17.871094 8-17.871094 17.871093 0 9.867188 8.003907 17.871094 17.871094 17.871094 4.289063 0 8.21875-1.511719 11.296875-4.027344-4.011719-3.277343-6.574219-8.261719-6.574219-13.84375zm0 0" fill="#bf0443"/><path d="m112.542969 237.390625c-4.207031 0-7.726563-3.417969-7.726563-7.726563 0-4.914062 4.515625-8.527343 9.230469-7.582031 3.785156.785157 6.222656 4.039063 6.222656 7.582031 0 4.316407-3.558593 7.726563-7.726562 7.726563zm0 0" fill="#da1c4b"/></svg>